<svg width="21" height="20" viewBox="0 0 21 20" fill="none" xmlns="http://www.w3.org/2000/svg">
<path d="M12.4133 3.71169L18.0383 9.33669C18.1257 9.42379 18.195 9.52728 18.2423 9.64124C18.2897 9.75519 18.314 9.87737 18.314 10.0008C18.314 10.1241 18.2897 10.2463 18.2423 10.3603C18.195 10.4742 18.1257 10.5777 18.0383 10.6648L12.4133 16.2898C12.2372 16.4659 11.9983 16.5649 11.7492 16.5649C11.5001 16.5649 11.2613 16.4659 11.0852 16.2898C10.909 16.1137 10.8101 15.8748 10.8101 15.6258C10.8101 15.3767 10.909 15.1378 11.0852 14.9617L15.1094 10.9375L3.625 10.9375C3.37636 10.9375 3.1379 10.8387 2.96209 10.6629C2.78627 10.4871 2.6875 10.2486 2.6875 9.99997C2.6875 9.75133 2.78627 9.51288 2.96209 9.33706C3.1379 9.16125 3.37636 9.06247 3.625 9.06247L15.1094 9.06247L11.0844 5.03826C10.9083 4.86214 10.8093 4.62326 10.8093 4.37419C10.8093 4.12512 10.9083 3.88625 11.0844 3.71013C11.2605 3.53401 11.4994 3.43506 11.7484 3.43506C11.9975 3.43506 12.2364 3.53401 12.4125 3.71013L12.4133 3.71169Z" fill="white"/>
</svg>
